<svg width="20" height="20" viewBox="0 0 20 20" fill="none" xmlns="http://www.w3.org/2000/svg">
<g clip-path="url(#clip0_71_64)">
<path d="M10.0681 0.761719C4.77091 0.761719 0.476562 5.05607 0.476562 10.3533C0.476562 15.1043 3.93451 19.0389 8.46845 19.8008V12.3543H6.15468V9.67467H8.46845V7.69878C8.46845 5.40619 9.8687 4.15685 11.9142 4.15685C12.8938 4.15685 13.7357 4.22985 13.9801 4.262V6.65838L12.5614 6.65907C11.4493 6.65907 11.2349 7.18745 11.2349 7.96309V9.6733H13.8886L13.5424 12.353H11.2349V19.8649C15.9805 19.2873 19.6596 15.2524 19.6596 10.3505C19.6596 5.05607 15.3652 0.761719 10.0681 0.761719Z" fill="#4318FF"/>
</g>
<defs>
<clipPath id="clip0_71_64">
<rect width="19.183" height="19.183" fill="white" transform="translate(0.476562 0.72168)"/>
</clipPath>
</defs>
</svg>
