<svg width="20" height="21" viewBox="0 0 20 21" fill="none" xmlns="http://www.w3.org/2000/svg">
<g clip-path="url(#clip0_71_70)">
<path d="M19.0432 10.7919C19.0432 10.1605 18.9873 9.56102 18.8914 8.97754H9.85938V12.5824H15.0308C14.799 13.7653 14.1196 14.7644 13.1125 15.4438V17.8417H16.1978C18.0042 16.1712 19.0432 13.7094 19.0432 10.7919Z" fill="#4285F4"/>
<path d="M9.86121 20.1674C12.4509 20.1674 14.617 19.3041 16.1996 17.8414L13.1143 15.4436C12.2511 16.0191 11.1561 16.3707 9.86121 16.3707C7.35942 16.3707 5.24129 14.6842 4.48197 12.4062H1.30078V14.8761C2.87539 18.0093 6.11252 20.1674 9.86121 20.1674Z" fill="#34A853"/>
<path d="M4.4818 12.406C4.28198 11.8305 4.17807 11.215 4.17807 10.5756C4.17807 9.93615 4.28997 9.3207 4.4818 8.74521V6.27539H1.30062C0.645198 7.57024 0.269531 9.02496 0.269531 10.5756C0.269531 12.1262 0.645198 13.5809 1.30062 14.8758L4.4818 12.406Z" fill="#FBBC05"/>
<path d="M9.86121 4.78102C11.276 4.78102 12.5388 5.26859 13.538 6.21974L16.2715 3.48616C14.617 1.93553 12.4509 0.984375 9.86121 0.984375C6.11252 0.984375 2.87539 3.14247 1.30078 6.27569L4.48197 8.74551C5.24129 6.46753 7.35942 4.78102 9.86121 4.78102Z" fill="#EA4335"/>
</g>
<defs>
<clipPath id="clip0_71_70">
<rect width="19.183" height="19.183" fill="white" transform="translate(0.0664062 0.984375)"/>
</clipPath>
</defs>
</svg>
