<svg width="32" height="32" viewBox="0 0 32 32" fill="none" xmlns="http://www.w3.org/2000/svg">
<path d="M2.10449 0C0.941895 0 0 0.941895 0 2.10449V5.79224H4.20874V2.10449C4.20874 0.941895 3.26636 0 2.10449 0Z" fill="#EDD4C2"/>
<path d="M25.6157 0H2.104C3.2666 0 4.2085 0.942139 4.2085 2.10449V32H27.7202V2.10449C27.7202 0.942139 26.7774 0 25.6157 0Z" fill="#FFEFE4"/>
<path d="M4.2085 30.75H27.7202V32H4.2085V30.75Z" fill="#EDD4C2"/>
<path d="M25.6157 0H2.104C2.96216 0 3.69971 0.513672 4.02735 1.25H25.6157C26.7774 1.25 27.7202 2.19214 27.7202 3.35449V2.10449C27.7202 0.942139 26.7774 0 25.6157 0Z" fill="#FFF7F2"/>
<path d="M32 28.4363H29.1704V8.80762H32V28.4363Z" fill="#FF8354"/>
<path d="M32 29.1655H29.1704V28.4365H32V29.1655Z" fill="#FFEFE4"/>
<path d="M29.1704 29.166H32V30.5857C32 31.3672 31.3667 32.0005 30.5852 32.0005C29.804 32.0005 29.1704 31.3672 29.1704 30.5857V29.166Z" fill="#6770E6"/>
<path d="M30.5852 30.7498C29.804 30.7498 29.1704 30.1165 29.1704 29.335V30.585C29.1704 31.3665 29.804 31.9998 30.5852 31.9998C31.3667 31.9998 32 31.3665 32 30.585V29.335C32 30.1165 31.3667 30.7498 30.5852 30.7498Z" fill="#5861C7"/>
<path d="M29.1704 8.80652L30.4807 5.15076C30.5159 5.05261 30.6545 5.05261 30.6897 5.15076L32 8.80652H29.1704Z" fill="#EDD4C2"/>
<path d="M29.8774 6.83289H31.2922L30.6895 5.15076C30.6543 5.05261 30.5154 5.05261 30.4802 5.15076L29.8774 6.83289Z" fill="#5861C7"/>
<path d="M29.8774 6.83289H31.2922L30.6895 5.15076C30.6543 5.05261 30.5154 5.05261 30.4802 5.15076L29.8774 6.83289Z" fill="#5861C7"/>
<path d="M30.4299 5.77576C30.4822 5.67761 30.6877 5.67761 30.7397 5.77576L31.2747 6.78333L30.6895 5.15076C30.6543 5.05261 30.5156 5.05261 30.4805 5.15076L29.8955 6.78284L30.4299 5.77576Z" fill="#8F95E6"/>
<path d="M23.427 12.7102H11.0017C10.6843 12.7102 10.4268 12.4529 10.4268 12.1355C10.4268 11.8179 10.6843 11.5605 11.0017 11.5605H23.4268C23.7444 11.5605 24.0017 11.8179 24.0017 12.1355C24.002 12.4529 23.7444 12.7102 23.427 12.7102Z" fill="#6770E6"/>
<path d="M23.427 15.7239H11.0017C10.6843 15.7239 10.4268 15.4666 10.4268 15.1489C10.4268 14.8315 10.6843 14.5742 11.0017 14.5742H23.4268C23.7444 14.5742 24.0017 14.8315 24.0017 15.1489C24.002 15.4666 23.7444 15.7239 23.427 15.7239Z" fill="#6770E6"/>
<path d="M23.427 18.7358H11.0017C10.6843 18.7358 10.4268 18.4785 10.4268 18.1609C10.4268 17.8435 10.6843 17.5859 11.0017 17.5859H23.4268C23.7444 17.5859 24.0017 17.8435 24.0017 18.1609C24.002 18.4785 23.7444 18.7358 23.427 18.7358Z" fill="#6770E6"/>
<path d="M23.427 21.7493H11.0017C10.6843 21.7493 10.4268 21.4919 10.4268 21.1746C10.4268 20.8569 10.6843 20.5996 11.0017 20.5996H23.4268C23.7444 20.5996 24.0017 20.8569 24.0017 21.1746C24.002 21.4919 23.7444 21.7493 23.427 21.7493Z" fill="#6770E6"/>
<path d="M9.07691 12.1355C9.07691 12.4531 8.81934 12.7104 8.50195 12.7104C8.18433 12.7104 7.92676 12.4531 7.92676 12.1355C7.92676 11.8179 8.18433 11.5605 8.50195 11.5605C8.81934 11.5605 9.07691 11.8179 9.07691 12.1355Z" fill="#6770E6"/>
<path d="M9.07691 15.1492C9.07691 15.4668 8.81934 15.7244 8.50195 15.7244C8.18433 15.7244 7.92676 15.4668 7.92676 15.1492C7.92676 14.8318 8.18433 14.5742 8.50195 14.5742C8.81934 14.5742 9.07691 14.8318 9.07691 15.1492Z" fill="#6770E6"/>
<path d="M9.07691 18.1609C9.07691 18.4785 8.81934 18.7358 8.50195 18.7358C8.18433 18.7358 7.92676 18.4785 7.92676 18.1609C7.92676 17.8433 8.18433 17.5859 8.50195 17.5859C8.81934 17.5859 9.07691 17.8433 9.07691 18.1609Z" fill="#6770E6"/>
<path d="M9.07691 21.1746C9.07691 21.4919 8.81934 21.7495 8.50195 21.7495C8.18433 21.7495 7.92676 21.4919 7.92676 21.1746C7.92676 20.8569 8.18433 20.5996 8.50195 20.5996C8.81934 20.5996 9.07691 20.8569 9.07691 21.1746Z" fill="#6770E6"/>
<path d="M10.3262 8.00049V4.06494H9.30444C9.03906 4.06494 8.82373 3.84985 8.82373 3.58423C8.82373 3.31885 9.03906 3.10352 9.30444 3.10352H12.3613C12.627 3.10352 12.842 3.31885 12.842 3.58423C12.842 3.84985 12.627 4.06494 12.3613 4.06494H11.3396V8.00049C11.3396 8.26611 11.1243 8.4812 10.8589 8.4812H10.8069C10.5415 8.4812 10.3262 8.26611 10.3262 8.00049Z" fill="#6770E6"/>
<path d="M17.2903 7.37695L17.5549 7.69434C17.718 7.89014 17.6856 8.18213 17.4834 8.33716C17.2918 8.48462 17.0181 8.45337 16.8643 8.26685L16.7493 8.12744C16.3936 8.4436 15.9658 8.60132 15.4651 8.60132C15.1846 8.60132 14.9231 8.55469 14.6802 8.46191C14.437 8.36963 14.2256 8.2395 14.0457 8.07129C13.8655 7.90381 13.7236 7.70459 13.6208 7.47412C13.5181 7.24414 13.4668 6.99121 13.4668 6.71558C13.4668 6.41528 13.5408 6.12988 13.6887 5.85913C13.8359 5.58911 14.0427 5.3584 14.3086 5.16846C14.2131 5.03809 14.1355 4.90308 14.0757 4.76245C14.0151 4.62256 13.9851 4.47461 13.9851 4.31934C13.9851 4.13403 14.0193 3.96069 14.0867 3.79736C14.1545 3.63477 14.2505 3.49365 14.3757 3.37305C14.501 3.25342 14.6489 3.15796 14.8188 3.08765C14.9893 3.01807 15.1772 2.98242 15.3826 2.98242C15.7432 2.98242 16.0322 3.06616 16.2498 3.23438C16.3098 3.28052 16.365 3.32983 16.4155 3.38257C16.6216 3.59717 16.5689 3.94824 16.3059 4.08716L16.2588 4.11206C16.0969 4.19775 15.9058 4.15015 15.7798 4.01733C15.655 3.88623 15.4907 3.84619 15.397 3.84619C15.2522 3.84619 15.1367 3.88892 15.0515 3.97388C14.9666 4.05957 14.9238 4.16699 14.9238 4.29736C14.9238 4.37744 14.9417 4.45068 14.9766 4.51855C15.0115 4.58643 15.0591 4.65723 15.1194 4.73242L16.7344 6.70068L16.9556 6.34058C17.0776 6.14185 17.3389 6.0813 17.5359 6.20581C17.7319 6.32959 17.79 6.58862 17.666 6.78418L17.2903 7.37695ZM15.5103 7.71484C15.7903 7.71484 16.0208 7.63184 16.2012 7.4668L14.8418 5.82178C14.7017 5.927 14.5942 6.05591 14.519 6.20874C14.4438 6.36157 14.4058 6.51807 14.4058 6.67822C14.4058 6.83862 14.4363 6.98267 14.4963 7.10986C14.5562 7.23755 14.6377 7.34692 14.7402 7.43677C14.843 7.52661 14.9609 7.5957 15.0935 7.64331C15.2261 7.69116 15.365 7.71484 15.5103 7.71484Z" fill="#6770E6"/>
<path d="M22.9512 7.26636C23.1714 7.4751 23.1523 7.82837 22.9158 8.01807C22.7515 8.1499 22.5737 8.2605 22.3826 8.34937C22.022 8.51685 21.6189 8.60107 21.1736 8.60107C20.7725 8.60107 20.4009 8.52832 20.0581 8.38281C19.7151 8.23804 19.418 8.04004 19.168 7.79004C18.9175 7.53931 18.72 7.24292 18.5745 6.89941C18.429 6.5564 18.3569 6.18726 18.3569 5.79175C18.3569 5.39624 18.429 5.0271 18.5745 4.68359C18.72 4.34058 18.9175 4.04419 19.168 3.79346C19.418 3.54346 19.7151 3.34546 20.0581 3.20068C20.4009 3.05518 20.7725 2.98242 21.1736 2.98242C21.6038 2.98242 21.9834 3.05762 22.311 3.20801C22.4849 3.2876 22.6482 3.38599 22.8015 3.50317C23.0244 3.67383 23.0352 4.00757 22.8337 4.20264L22.7908 4.24414C22.6221 4.40747 22.3623 4.41431 22.1753 4.27222C22.0947 4.21094 22.0098 4.15649 21.9204 4.10889C21.7126 3.99878 21.4663 3.94385 21.1809 3.94385C20.9302 3.94385 20.6948 3.98779 20.4749 4.0752C20.2542 4.16333 20.063 4.28687 19.9001 4.44678C19.7376 4.60767 19.6086 4.80151 19.5134 5.0293C19.418 5.25732 19.3711 5.51099 19.3711 5.79175C19.3711 6.07227 19.4182 6.32593 19.5134 6.55396C19.6086 6.78198 19.7378 6.97559 19.9001 7.13574C20.063 7.29663 20.2542 7.41992 20.4749 7.50806C20.6948 7.59546 20.9302 7.6394 21.1809 7.6394C21.481 7.6394 21.7481 7.57837 21.981 7.45532C22.0903 7.39771 22.1939 7.32886 22.2913 7.24854C22.4863 7.08838 22.7681 7.09277 22.9512 7.26636Z" fill="#6770E6"/>
<path d="M11.4373 28.4363H8.4314C8.15308 28.4363 7.92725 28.2104 7.92725 27.9321V24.926C7.92725 24.6475 8.15308 24.4219 8.4314 24.4219H11.4375C11.7161 24.4219 11.9417 24.6475 11.9417 24.926V27.9321C11.9417 28.2104 11.7158 28.4363 11.4373 28.4363Z" fill="#EDD4C2"/>
<path d="M9.70456 27.5641C9.60007 27.5641 9.4946 27.5299 9.40647 27.4603L8.81345 26.9913C8.6052 26.8265 8.5698 26.5241 8.73459 26.3156C8.89914 26.1073 9.20188 26.0719 9.41013 26.2367L9.63132 26.4115L10.5456 25.2894C10.7134 25.0836 11.0166 25.0526 11.2224 25.2203C11.4284 25.3883 11.4594 25.6913 11.2915 25.8973L10.0779 27.3868C9.98288 27.5033 9.84446 27.5641 9.70456 27.5641Z" fill="#6770E6"/>
<path d="M23.427 27.0042H14.3914C14.074 27.0042 13.8164 26.7468 13.8164 26.4292C13.8164 26.1118 14.074 25.8545 14.3914 25.8545H23.427C23.7444 25.8545 24.002 26.1118 24.002 26.4292C24.002 26.7468 23.7444 27.0042 23.427 27.0042Z" fill="#6770E6"/>
</svg>
