<svg width="29" height="29" viewBox="0 0 29 29" fill="none" xmlns="http://www.w3.org/2000/svg">
<path d="M14.6658 8.32126C19.1294 8.32126 23.1101 10.8298 25.0533 14.7987C23.1101 18.7676 19.1412 21.2762 14.6658 21.2762C10.1905 21.2762 6.2216 18.7676 4.27836 14.7987C6.2216 10.8298 10.2023 8.32126 14.6658 8.32126ZM14.6658 5.96582C8.77725 5.96582 3.74839 9.62853 1.71094 14.7987C3.74839 19.9689 8.77725 23.6316 14.6658 23.6316C20.5544 23.6316 25.5833 19.9689 27.6208 14.7987C25.5833 9.62853 20.5544 5.96582 14.6658 5.96582ZM14.6658 11.8544C16.2911 11.8544 17.6101 13.1735 17.6101 14.7987C17.6101 16.424 16.2911 17.743 14.6658 17.743C13.0406 17.743 11.7215 16.424 11.7215 14.7987C11.7215 13.1735 13.0406 11.8544 14.6658 11.8544ZM14.6658 9.49898C11.7451 9.49898 9.36611 11.878 9.36611 14.7987C9.36611 17.7195 11.7451 20.0984 14.6658 20.0984C17.5866 20.0984 19.9656 17.7195 19.9656 14.7987C19.9656 11.878 17.5866 9.49898 14.6658 9.49898Z" fill="#A3AED0"/>
</svg>
