<svg width="23" height="23" viewBox="0 0 23 23" fill="none" xmlns="http://www.w3.org/2000/svg">
<path d="M11.4987 7.66634C9.38078 7.66634 7.66537 9.38176 7.66537 11.4997C7.66537 13.6176 9.38078 15.333 11.4987 15.333C13.6166 15.333 15.332 13.6176 15.332 11.4997C15.332 9.38176 13.6166 7.66634 11.4987 7.66634ZM20.0662 10.5413C19.6254 6.54509 16.4533 3.37301 12.457 2.93217V0.958008H10.5404V2.93217C6.54412 3.37301 3.37203 6.54509 2.9312 10.5413H0.957031V12.458H2.9312C3.37203 16.4543 6.54412 19.6263 10.5404 20.0672V22.0413H12.457V20.0672C16.4533 19.6263 19.6254 16.4543 20.0662 12.458H22.0404V10.5413H20.0662ZM11.4987 18.208C7.78995 18.208 4.79037 15.2084 4.79037 11.4997C4.79037 7.79093 7.78995 4.79134 11.4987 4.79134C15.2075 4.79134 18.207 7.79093 18.207 11.4997C18.207 15.2084 15.2075 18.208 11.4987 18.208Z" fill="#222222"/>
</svg>
