<svg width="781" height="779" viewBox="0 0 781 779" fill="none" xmlns="http://www.w3.org/2000/svg">
<path opacity="0.6" d="M779.609 6.10352e-05L366.615 10.6056C366.488 7.07042 366.488 3.53523 366.488 6.10352e-05H779.736H779.609ZM780.368 6.10352e-05H780.494H781H780.368ZM779.862 6.10352e-05H779.736H779.609H779.483H779.357L370.027 53.2801C369.142 46.2098 368.384 39.0132 367.752 31.8166L779.483 6.10352e-05H779.609H779.862ZM377.862 96.0809C376.219 89.0105 374.703 81.9402 373.313 74.8699L779.357 0.126282L377.862 96.0809ZM779.862 6.10352e-05H779.609H779.483H779.862ZM390.247 137.872C387.846 131.054 385.571 124.11 383.549 117.166L779.483 0.126282L390.247 137.872ZM406.802 178.021C403.643 171.456 400.736 164.89 397.956 158.199L779.357 0.252563L406.802 178.021ZM427.528 216.024C423.737 209.838 420.198 203.651 416.66 197.338L779.23 0.126282L427.528 216.024ZM779.609 6.10352e-05L452.045 251.502C447.621 245.821 443.451 240.013 439.407 234.079L779.483 0.126282L779.609 6.10352e-05ZM779.736 6.10352e-05L479.974 284.202C475.045 279.026 470.243 273.723 465.567 268.168L779.736 6.10352e-05ZM779.736 0.126282L511.188 313.873C505.754 309.201 500.446 304.403 495.139 299.479L779.736 0.126282ZM779.736 0.126282V0.252563L545.436 340.008C539.496 335.967 533.683 331.675 527.996 327.382L779.736 0.126282ZM779.609 0.378784L582.211 362.734C575.892 359.325 569.574 355.663 563.508 351.876L779.609 0.378784ZM621.514 381.42C614.816 378.642 608.245 375.738 601.673 372.582L779.736 0.378784L621.514 381.42ZM662.46 395.939C655.509 393.919 648.558 391.646 641.734 389.247L779.609 0.505066L662.46 395.939ZM704.795 406.04C697.592 404.777 690.515 403.262 683.564 401.494L779.609 0.378784L704.795 406.04ZM779.736 6.10352e-05V0.126282V0.252563L747.636 411.595C740.433 411.09 733.356 410.332 726.153 409.322L779.483 0.378784V0.252563V0.126282L779.736 6.10352e-05ZM779.736 6.10352e-05V412.857C776.197 412.857 772.659 412.857 769.12 412.731L779.736 0.126282V6.10352e-05ZM779.736 412.857V6.10352e-05H779.862H780.241H780.368H780.494H781V412.857H779.736ZM779.609 6.10352e-05L366.615 10.6056L0.252751 20.0748C0.126375 13.3832 0 6.69163 0 6.10352e-05H779.736H779.609ZM780.368 6.10352e-05H780.494H781H780.368ZM779.862 6.10352e-05H779.736H779.609H779.483H779.357L369.901 53.4063L6.57152 100.752C4.80226 87.3692 3.41213 73.8598 2.40113 60.3504L367.752 32.0691L779.483 6.10352e-05H779.609H779.862ZM779.357 0.126282L377.862 96.0809L21.4838 181.304C18.3244 168.047 15.4178 154.664 13.0167 141.154L373.439 74.8699L779.357 0.126282ZM390.247 137.872L44.7369 260.088C40.1874 247.209 35.8906 234.205 32.0993 221.074L383.549 117.166L779.483 0.126282L390.247 137.872ZM406.802 178.021L76.2043 335.841C70.2647 323.594 64.7042 311.095 59.5228 298.343L398.082 158.073L779.483 0.126282L406.802 178.021ZM427.528 216.024L115.254 407.555C108.177 395.939 101.353 384.197 94.7815 372.203L779.357 0.126282L427.528 216.024ZM779.609 6.10352e-05L452.045 251.502L161.381 474.597C153.167 463.865 145.205 452.881 137.37 441.77L439.281 234.079L779.357 0.126282L779.609 6.10352e-05ZM779.609 6.10352e-05L479.974 284.202L214.206 536.336C204.854 526.488 195.882 516.514 187.036 506.161L465.567 268.294L779.609 6.10352e-05ZM779.736 0.126282L511.188 313.873L273.097 592.141C262.734 583.303 252.751 574.339 242.893 564.996L495.265 299.479L779.736 0.126282ZM779.736 0.126282V0.252563L545.436 340.008L337.549 641.633C326.301 633.932 315.433 625.978 304.691 617.645L527.996 327.256L779.736 0.126282ZM779.609 0.378784L407.181 684.308C395.176 677.743 383.423 670.925 371.796 663.854L563.634 351.876L779.609 0.378784ZM621.514 381.42L481.111 719.66C468.473 714.357 455.962 708.802 443.577 702.994L601.547 372.582L779.609 0.378784L621.514 381.42ZM662.46 395.939L558.579 747.057C545.436 743.143 532.293 738.977 519.529 734.432L641.86 389.247L779.736 0.505066L662.46 395.939ZM779.609 0.378784L704.795 406.04L638.448 766.122C624.926 763.597 611.53 760.819 598.261 757.663L683.564 401.621L779.609 0.378784ZM779.736 0.126282V0.252563L747.636 411.595L719.328 776.727C705.806 775.717 692.284 774.202 678.888 772.561L726.279 409.448L779.736 0.378784V0.252563V0.126282ZM779.736 6.10352e-05V779C773.038 779 766.34 778.874 759.642 778.747L769.12 412.731L779.736 0.126282V6.10352e-05ZM779.736 779V6.10352e-05H779.862H780.241H780.368H780.494H781V779H779.736Z" fill="url(#paint0_radial_66_32)"/>
<defs>
<radialGradient id="paint0_radial_66_32" cx="0" cy="0" r="1" gradientUnits="userSpaceOnUse" gradientTransform="translate(807.132 -46.2773) rotate(133.948) scale(833.452 835.12)">
<stop stop-color="white" stop-opacity="0.15"/>
<stop offset="1" stop-color="#6366F1" stop-opacity="0"/>
</radialGradient>
</defs>
</svg>
